<svg xmlns="http://www.w3.org/2000/svg" width="80" height="80" viewBox="0 0 80 80">
  <g id="Group_6611" data-name="Group 6611" transform="translate(-597 -288)">
    <g id="Ellipse_1" data-name="Ellipse 1" transform="translate(597 288)" fill="rgba(5,7,8,0)" stroke="#fff" stroke-width="2">
      <circle cx="40" cy="40" r="40" stroke="none"/>
      <circle cx="40" cy="40" r="39" fill="none"/>
    </g>
    <g id="Group_3" data-name="Group 3" transform="translate(617.445 303.811)">
      <path id="Path_1" data-name="Path 1" d="M776.817,452.527l19.555-7.091v14.129Z" transform="translate(-776.817 -445.436)" fill="#fff"/>
      <path id="Path_2" data-name="Path 2" d="M796.372,452.527l-19.555-7.091v14.129Z" transform="translate(-757.263 -445.436)" fill="#fff"/>
      <g id="Group_2" data-name="Group 2" transform="translate(30.218 8.479)">
        <g id="Group_1" data-name="Group 1" transform="translate(0 14.107)">
          <path id="Rectangle_8" data-name="Rectangle 8" d="M3.172,0h0A3.172,3.172,0,0,1,6.343,3.172V25.278a0,0,0,0,1,0,0H0a0,0,0,0,1,0,0V3.172A3.172,3.172,0,0,1,3.172,0Z" fill="#fff"/>
          <rect id="Rectangle_9" data-name="Rectangle 9" width="6.343" height="0.095" transform="translate(0 4.639)" fill="#fff"/>
        </g>
        <rect id="Rectangle_10" data-name="Rectangle 10" width="1.136" height="14.296" transform="translate(2.651)" fill="#fff"/>
      </g>
      <path id="Path_3" data-name="Path 3" d="M880.08,628.088V649.2s-.141,6.219,2.832,8.34a8.559,8.559,0,0,0,5.914,1.689,20.064,20.064,0,0,0,3.231-.231,7.346,7.346,0,0,0,5.075-3.5c1.155-2.215,1.118-6.295,1.118-6.295V628.088h-5.644V649.2a7.115,7.115,0,0,1-.776,3.568c-.469.74-1.218.987-2.556,1.136-3.768.114-3.622-4.7-3.622-4.7V628.088Z" transform="translate(-870.303 -610.795)" fill="#fff"/>
    </g>
  </g>
</svg>
