<?xml version="1.0" standalone="no"?>
<!DOCTYPE svg PUBLIC "-//W3C//DTD SVG 20010904//EN"
 "http://www.w3.org/TR/2001/REC-SVG-20010904/DTD/svg10.dtd">
<svg version="1.0" xmlns="http://www.w3.org/2000/svg"
 width="80.000000pt" height="80.000000pt" viewBox="0 0 80.000000 80.000000"
 preserveAspectRatio="xMidYMid meet">

<g transform="translate(0.000000,80.000000) scale(0.100000,-0.100000)"
fill="#000000" stroke="none">
<path d="M303 785 c-159 -43 -265 -159 -295 -325 -22 -116 23 -252 112 -340
88 -89 224 -134 340 -112 178 33 299 154 332 332 22 115 -23 252 -110 339 -56
56 -107 85 -189 106 -70 18 -121 18 -190 0z m260 -43 c77 -38 148 -111 185
-190 23 -49 27 -70 27 -152 0 -82 -4 -103 -27 -152 -37 -80 -107 -152 -187
-191 -60 -29 -74 -32 -161 -32 -82 0 -103 4 -152 27 -80 37 -152 107 -191 187
-29 60 -32 74 -32 161 0 82 4 103 27 152 47 100 137 180 241 214 26 9 73 13
124 11 67 -3 92 -9 146 -35z"/>
<path d="M307 608 c-48 -18 -84 -35 -80 -39 5 -4 45 -21 91 -38 l84 -30 64 24
64 24 0 -69 c0 -38 -4 -72 -10 -75 -6 -4 -10 -57 -10 -126 l0 -119 30 0 30 0
0 120 c0 98 -3 122 -15 126 -11 5 -15 23 -15 76 0 61 2 71 20 75 11 3 20 8 20
12 0 6 -171 72 -181 70 -2 0 -43 -14 -92 -31z"/>
<path d="M300 363 c0 -171 16 -203 99 -203 31 0 44 6 60 26 19 24 21 40 21
155 l0 129 -25 0 -25 0 0 -119 c0 -96 -3 -121 -16 -132 -11 -9 -20 -10 -32 -2
-14 8 -17 31 -20 132 l-3 121 -29 0 -30 0 0 -107z"/>
</g>
</svg>
